<svg width="600" height="400" viewBox="0 0 600 400" fill="none" xmlns="http://www.w3.org/2000/svg">
  <rect width="600" height="400" rx="8" fill="#F9FAFB"/>
  <path d="M300 320C366.274 320 420 266.274 420 200C420 133.726 366.274 80 300 80C233.726 80 180 133.726 180 200C180 266.274 233.726 320 300 320Z" fill="#EFF6FF"/>
  <path d="M300 300C355.228 300 400 255.228 400 200C400 144.772 355.228 100 300 100C244.772 100 200 144.772 200 200C200 255.228 244.772 300 300 300Z" fill="#3B82F6" fill-opacity="0.1"/>
  <path d="M330 160C330 176.569 316.569 190 300 190C283.431 190 270 176.569 270 160C270 143.431 283.431 130 300 130C316.569 130 330 143.431 330 160Z" fill="#3B82F6" fill-opacity="0.2"/>
  <path d="M360 260C360 282.091 332.614 300 300 300C267.386 300 240 282.091 240 260C240 237.909 267.386 220 300 220C332.614 220 360 237.909 360 260Z" fill="#3B82F6" fill-opacity="0.2"/>
  <path d="M320 180C320 191.046 311.046 200 300 200C288.954 200 280 191.046 280 180C280 168.954 288.954 160 300 160C311.046 160 320 168.954 320 180Z" fill="#3B82F6" fill-opacity="0.4"/>
  <path d="M320 180C320 191.046 311.046 200 300 200C288.954 200 280 191.046 280 180C280 168.954 288.954 160 300 160C311.046 160 320 168.954 320 180Z" stroke="#3B82F6" stroke-width="2"/>
  <path d="M280 240H320M280 260H320" stroke="#3B82F6" stroke-width="2" stroke-linecap="round"/>
</svg>