<svg width="1440" height="400" xmlns="http://www.w3.org/2000/svg" viewBox="0 0 1440 400">
  <path fill="#4F46E5" fill-opacity="0.05" d="M0,128L48,144C96,160,192,192,288,186.7C384,181,480,139,576,138.7C672,139,768,181,864,197.3C960,213,1056,203,1152,186.7C1248,171,1344,149,1392,138.7L1440,128L1440,320L1392,320C1344,320,1248,320,1152,320C1056,320,960,320,864,320C768,320,672,320,576,320C480,320,384,320,288,320C192,320,96,320,48,320L0,320Z"></path>
  <path fill="#8B5CF6" fill-opacity="0.05" d="M0,160L48,165.3C96,171,192,181,288,197.3C384,213,480,235,576,229.3C672,224,768,192,864,176C960,160,1056,160,1152,181.3C1248,203,1344,245,1392,266.7L1440,288L1440,320L1392,320C1344,320,1248,320,1152,320C1056,320,960,320,864,320C768,320,672,320,576,320C480,320,384,320,288,320C192,320,96,320,48,320L0,320Z"></path>
</svg>
