<svg xmlns="http://www.w3.org/2000/svg" width="500" height="500" viewBox="0 0 500 500" fill="none">
  <path d="M250 166.667C250 156.25 247.917 145.833 243.75 136.458C239.583 127.083 233.333 118.75 225 112.5C216.667 106.25 207.292 101.042 196.875 97.9167C186.458 94.7917 175 93.75 163.542 93.75" stroke="#4F46E5" stroke-width="4" stroke-linecap="round" stroke-dasharray="4 12"/>
  <path d="M336.458 93.75C325 93.75 313.542 94.7917 303.125 97.9167C292.708 101.042 283.333 106.25 275 112.5C266.667 118.75 260.417 127.083 256.25 136.458C252.083 145.833 250 156.25 250 166.667" stroke="#8B5CF6" stroke-width="4" stroke-linecap="round" stroke-dasharray="4 12"/>
  <circle cx="163.542" cy="93.75" r="25" fill="#4F46E5" fill-opacity="0.15" stroke="#4F46E5" stroke-width="2"/>
  <circle cx="336.458" cy="93.75" r="25" fill="#8B5CF6" fill-opacity="0.15" stroke="#8B5CF6" stroke-width="2"/>
  <circle cx="250" cy="166.667" r="25" fill="#C084FC" fill-opacity="0.15" stroke="#C084FC" stroke-width="2"/>
</svg>
