<svg width="400" height="200" viewBox="0 0 400 200" fill="none" xmlns="http://www.w3.org/2000/svg">
  <path d="M0 50C20 30 40 70 60 50C80 30 100 70 120 50C140 30 160 70 180 50C200 30 220 70 240 50C260 30 280 70 300 50C320 30 340 70 360 50C380 30 400 70 420 50" stroke="#4F46E5" stroke-width="2" stroke-linecap="round"/>
  <path d="M0 100C20 80 40 120 60 100C80 80 100 120 120 100C140 80 160 120 180 100C200 80 220 120 240 100C260 80 280 120 300 100C320 80 340 120 360 100C380 80 400 120 420 100" stroke="#4F46E5" stroke-width="2" stroke-linecap="round" stroke-opacity="0.7"/>
  <path d="M0 150C20 130 40 170 60 150C80 130 100 170 120 150C140 130 160 170 180 150C200 130 220 170 240 150C260 130 280 170 300 150C320 130 340 170 360 150C380 130 400 170 420 150" stroke="#4F46E5" stroke-width="2" stroke-linecap="round" stroke-opacity="0.4"/>
</svg>